<mxfile host="Electron" agent="Mozilla/5.0 (Windows NT 10.0; Win64; x64) AppleWebKit/537.36 (KHTML, like Gecko) draw.io/26.2.2 Chrome/134.0.6998.178 Electron/35.1.2 Safari/537.36" version="26.2.2">
  <diagram name="Page-1" id="evvJW0mEan1GV3IqNlOn">
    <mxGraphModel dx="788" dy="524" grid="1" gridSize="10" guides="1" tooltips="1" connect="1" arrows="1" fold="1" page="1" pageScale="1" pageWidth="850" pageHeight="1100" math="0" shadow="0">
      <root>
        <mxCell id="0" />
        <mxCell id="1" parent="0" />
        <mxCell id="gIq5g3v4qNaFK92EhBJT-1" style="edgeStyle=orthogonalEdgeStyle;rounded=0;orthogonalLoop=1;jettySize=auto;html=1;exitX=0.5;exitY=1;exitDx=0;exitDy=0;" edge="1" parent="1" source="gIq5g3v4qNaFK92EhBJT-2">
          <mxGeometry relative="1" as="geometry">
            <mxPoint x="480" y="210" as="targetPoint" />
          </mxGeometry>
        </mxCell>
        <mxCell id="gIq5g3v4qNaFK92EhBJT-2" value="Client" style="rounded=1;whiteSpace=wrap;html=1;" vertex="1" parent="1">
          <mxGeometry x="420" y="120" width="120" height="50" as="geometry" />
        </mxCell>
        <mxCell id="gIq5g3v4qNaFK92EhBJT-3" value="&lt;p style=&quot;margin:0px;margin-top:4px;text-align:center;&quot;&gt;&lt;i&gt;&amp;lt;&amp;lt;Interface&amp;gt;&amp;gt;&lt;/i&gt;&lt;br&gt;&lt;b&gt;ApplicationStatus&amp;nbsp;&lt;/b&gt;&lt;/p&gt;&lt;hr size=&quot;1&quot; style=&quot;border-style:solid;&quot;&gt;&lt;p style=&quot;margin:0px;margin-left:4px;&quot;&gt;&amp;nbsp;+ getStatus(): String&amp;nbsp; &amp;nbsp;&lt;br&gt;&lt;/p&gt;" style="verticalAlign=top;align=left;overflow=fill;html=1;whiteSpace=wrap;" vertex="1" parent="1">
          <mxGeometry x="385" y="210" width="190" height="100" as="geometry" />
        </mxCell>
        <mxCell id="gIq5g3v4qNaFK92EhBJT-4" value="BasicApplication" style="swimlane;fontStyle=1;align=center;verticalAlign=top;childLayout=stackLayout;horizontal=1;startSize=26;horizontalStack=0;resizeParent=1;resizeParentMax=0;resizeLast=0;collapsible=1;marginBottom=0;whiteSpace=wrap;html=1;" vertex="1" parent="1">
          <mxGeometry x="210" y="370" width="160" height="52" as="geometry" />
        </mxCell>
        <mxCell id="gIq5g3v4qNaFK92EhBJT-5" value="&lt;div&gt;&lt;span style=&quot;background-color: transparent;&quot;&gt;+ getStatus(): String&amp;nbsp;&lt;/span&gt;&lt;/div&gt;" style="text;strokeColor=none;fillColor=none;align=left;verticalAlign=top;spacingLeft=4;spacingRight=4;overflow=hidden;rotatable=0;points=[[0,0.5],[1,0.5]];portConstraint=eastwest;whiteSpace=wrap;html=1;" vertex="1" parent="gIq5g3v4qNaFK92EhBJT-4">
          <mxGeometry y="26" width="160" height="26" as="geometry" />
        </mxCell>
        <mxCell id="gIq5g3v4qNaFK92EhBJT-6" value="NotifierDecorator" style="swimlane;fontStyle=1;align=center;verticalAlign=top;childLayout=stackLayout;horizontal=1;startSize=26;horizontalStack=0;resizeParent=1;resizeParentMax=0;resizeLast=0;collapsible=1;marginBottom=0;whiteSpace=wrap;html=1;" vertex="1" parent="1">
          <mxGeometry x="590" y="380" width="160" height="86" as="geometry" />
        </mxCell>
        <mxCell id="gIq5g3v4qNaFK92EhBJT-7" value="-wrappee:&lt;span style=&quot;background-color: transparent; color: light-dark(rgb(0, 0, 0), rgb(255, 255, 255));&quot;&gt;ApplicationStatus&amp;nbsp;&lt;/span&gt;" style="text;strokeColor=none;fillColor=none;align=left;verticalAlign=top;spacingLeft=4;spacingRight=4;overflow=hidden;rotatable=0;points=[[0,0.5],[1,0.5]];portConstraint=eastwest;whiteSpace=wrap;html=1;" vertex="1" parent="gIq5g3v4qNaFK92EhBJT-6">
          <mxGeometry y="26" width="160" height="26" as="geometry" />
        </mxCell>
        <mxCell id="gIq5g3v4qNaFK92EhBJT-8" value="" style="line;strokeWidth=1;fillColor=none;align=left;verticalAlign=middle;spacingTop=-1;spacingLeft=3;spacingRight=3;rotatable=0;labelPosition=right;points=[];portConstraint=eastwest;strokeColor=inherit;" vertex="1" parent="gIq5g3v4qNaFK92EhBJT-6">
          <mxGeometry y="52" width="160" height="8" as="geometry" />
        </mxCell>
        <mxCell id="gIq5g3v4qNaFK92EhBJT-9" value="&lt;div&gt;+ getStatus(): String&amp;nbsp;&lt;/div&gt;" style="text;strokeColor=none;fillColor=none;align=left;verticalAlign=top;spacingLeft=4;spacingRight=4;overflow=hidden;rotatable=0;points=[[0,0.5],[1,0.5]];portConstraint=eastwest;whiteSpace=wrap;html=1;" vertex="1" parent="gIq5g3v4qNaFK92EhBJT-6">
          <mxGeometry y="60" width="160" height="26" as="geometry" />
        </mxCell>
        <mxCell id="gIq5g3v4qNaFK92EhBJT-10" value="&amp;nbsp;ViewedByEmployerDecorator&amp;nbsp;&amp;nbsp;" style="swimlane;fontStyle=1;align=center;verticalAlign=top;childLayout=stackLayout;horizontal=1;startSize=26;horizontalStack=0;resizeParent=1;resizeParentMax=0;resizeLast=0;collapsible=1;marginBottom=0;whiteSpace=wrap;html=1;" vertex="1" parent="1">
          <mxGeometry x="310" y="530" width="170" height="52" as="geometry" />
        </mxCell>
        <mxCell id="gIq5g3v4qNaFK92EhBJT-11" value="&lt;div&gt;&lt;span style=&quot;background-color: transparent;&quot;&gt;&amp;nbsp;+ getStatus(): String&amp;nbsp; &amp;nbsp;&lt;/span&gt;&lt;/div&gt;" style="text;strokeColor=none;fillColor=none;align=left;verticalAlign=top;spacingLeft=4;spacingRight=4;overflow=hidden;rotatable=0;points=[[0,0.5],[1,0.5]];portConstraint=eastwest;whiteSpace=wrap;html=1;" vertex="1" parent="gIq5g3v4qNaFK92EhBJT-10">
          <mxGeometry y="26" width="170" height="26" as="geometry" />
        </mxCell>
        <mxCell id="gIq5g3v4qNaFK92EhBJT-12" value="&lt;span style=&quot;white-space: pre;&quot;&gt;&#x9;&lt;/span&gt;InterviewedCandidateDecorator" style="swimlane;fontStyle=1;align=center;verticalAlign=top;childLayout=stackLayout;horizontal=1;startSize=26;horizontalStack=0;resizeParent=1;resizeParentMax=0;resizeLast=0;collapsible=1;marginBottom=0;whiteSpace=wrap;html=1;" vertex="1" parent="1">
          <mxGeometry x="760" y="540" width="200" height="52" as="geometry" />
        </mxCell>
        <mxCell id="gIq5g3v4qNaFK92EhBJT-13" value="&lt;div&gt;&lt;span style=&quot;background-color: transparent;&quot;&gt;&amp;nbsp;+ getStatus(): String&amp;nbsp; &amp;nbsp;&lt;/span&gt;&lt;/div&gt;" style="text;strokeColor=none;fillColor=none;align=left;verticalAlign=top;spacingLeft=4;spacingRight=4;overflow=hidden;rotatable=0;points=[[0,0.5],[1,0.5]];portConstraint=eastwest;whiteSpace=wrap;html=1;" vertex="1" parent="gIq5g3v4qNaFK92EhBJT-12">
          <mxGeometry y="26" width="200" height="26" as="geometry" />
        </mxCell>
        <mxCell id="gIq5g3v4qNaFK92EhBJT-14" value="" style="endArrow=none;dashed=1;html=1;rounded=0;exitX=0.558;exitY=-0.016;exitDx=0;exitDy=0;exitPerimeter=0;" edge="1" parent="1" source="gIq5g3v4qNaFK92EhBJT-4">
          <mxGeometry width="50" height="50" relative="1" as="geometry">
            <mxPoint x="300" y="360" as="sourcePoint" />
            <mxPoint x="300" y="340" as="targetPoint" />
          </mxGeometry>
        </mxCell>
        <mxCell id="gIq5g3v4qNaFK92EhBJT-15" value="" style="endArrow=none;dashed=1;html=1;rounded=0;" edge="1" parent="1">
          <mxGeometry width="50" height="50" relative="1" as="geometry">
            <mxPoint x="300" y="340" as="sourcePoint" />
            <mxPoint x="670" y="340" as="targetPoint" />
          </mxGeometry>
        </mxCell>
        <mxCell id="gIq5g3v4qNaFK92EhBJT-16" value="" style="endArrow=none;dashed=1;html=1;rounded=0;exitX=0.5;exitY=0;exitDx=0;exitDy=0;" edge="1" parent="1" source="gIq5g3v4qNaFK92EhBJT-6">
          <mxGeometry width="50" height="50" relative="1" as="geometry">
            <mxPoint x="480" y="400" as="sourcePoint" />
            <mxPoint x="670" y="340" as="targetPoint" />
          </mxGeometry>
        </mxCell>
        <mxCell id="gIq5g3v4qNaFK92EhBJT-17" value="" style="endArrow=block;dashed=1;endFill=0;endSize=12;html=1;rounded=0;entryX=0.5;entryY=1;entryDx=0;entryDy=0;" edge="1" parent="1" target="gIq5g3v4qNaFK92EhBJT-3">
          <mxGeometry width="160" relative="1" as="geometry">
            <mxPoint x="480" y="340" as="sourcePoint" />
            <mxPoint x="540" y="360" as="targetPoint" />
          </mxGeometry>
        </mxCell>
        <mxCell id="gIq5g3v4qNaFK92EhBJT-18" value="" style="endArrow=open;html=1;endSize=12;startArrow=diamondThin;startSize=14;startFill=0;edgeStyle=orthogonalEdgeStyle;align=left;verticalAlign=bottom;rounded=0;exitX=1;exitY=0.5;exitDx=0;exitDy=0;entryX=1;entryY=0.25;entryDx=0;entryDy=0;" edge="1" parent="1" source="gIq5g3v4qNaFK92EhBJT-7" target="gIq5g3v4qNaFK92EhBJT-3">
          <mxGeometry x="-1" y="3" relative="1" as="geometry">
            <mxPoint x="880" y="350" as="sourcePoint" />
            <mxPoint x="680" y="270" as="targetPoint" />
            <Array as="points">
              <mxPoint x="780" y="419" />
              <mxPoint x="780" y="235" />
            </Array>
          </mxGeometry>
        </mxCell>
        <mxCell id="gIq5g3v4qNaFK92EhBJT-19" value="" style="endArrow=none;html=1;rounded=0;" edge="1" parent="1">
          <mxGeometry width="50" height="50" relative="1" as="geometry">
            <mxPoint x="400" y="530" as="sourcePoint" />
            <mxPoint x="400" y="500" as="targetPoint" />
          </mxGeometry>
        </mxCell>
        <mxCell id="gIq5g3v4qNaFK92EhBJT-20" value="" style="endArrow=none;html=1;rounded=0;" edge="1" parent="1">
          <mxGeometry width="50" height="50" relative="1" as="geometry">
            <mxPoint x="400" y="500" as="sourcePoint" />
            <mxPoint x="840" y="500" as="targetPoint" />
          </mxGeometry>
        </mxCell>
        <mxCell id="gIq5g3v4qNaFK92EhBJT-21" value="" style="endArrow=none;html=1;rounded=0;" edge="1" parent="1">
          <mxGeometry width="50" height="50" relative="1" as="geometry">
            <mxPoint x="840" y="540" as="sourcePoint" />
            <mxPoint x="840" y="500" as="targetPoint" />
          </mxGeometry>
        </mxCell>
        <mxCell id="gIq5g3v4qNaFK92EhBJT-22" value="" style="endArrow=classic;html=1;rounded=0;entryX=0.473;entryY=1.128;entryDx=0;entryDy=0;entryPerimeter=0;" edge="1" parent="1" target="gIq5g3v4qNaFK92EhBJT-9">
          <mxGeometry width="50" height="50" relative="1" as="geometry">
            <mxPoint x="666" y="500" as="sourcePoint" />
            <mxPoint x="530" y="330" as="targetPoint" />
          </mxGeometry>
        </mxCell>
      </root>
    </mxGraphModel>
  </diagram>
</mxfile>
